<svg width="92" height="92" viewBox="0 0 92 92" fill="none" xmlns="http://www.w3.org/2000/svg">
<g filter="url(#filter0_d_201_22394)">
<rect x="13" y="11" width="66" height="66" rx="20" fill="white"/>
<rect x="13.5" y="11.5" width="65" height="65" rx="19.5" stroke="white"/>
</g>
<path d="M39.5 66C43.088 66 46 63.088 46 59.5V53H39.5C35.912 53 33 55.912 33 59.5C33 63.088 35.912 66 39.5 66Z" fill="#0ACF83"/>
<path d="M33 46.5C33 42.912 35.912 40 39.5 40H46V53H39.5C35.912 53 33 50.088 33 46.5Z" fill="#A259FF"/>
<path d="M33 33.5C33 29.912 35.912 27 39.5 27H46V40H39.5C35.912 40 33 37.088 33 33.5Z" fill="#F24E1E"/>
<path d="M46 27H52.5C56.088 27 59 29.912 59 33.5C59 37.088 56.088 40 52.5 40H46V27Z" fill="#FF7262"/>
<path d="M59 46.5C59 50.088 56.088 53 52.5 53C48.912 53 46 50.088 46 46.5C46 42.912 48.912 40 52.5 40C56.088 40 59 42.912 59 46.5Z" fill="#1ABCFE"/>
<defs>
<filter id="filter0_d_201_22394" x="0" y="0" width="92" height="92" filterUnits="userSpaceOnUse" color-interpolation-filters="sRGB">
<feFlood flood-opacity="0" result="BackgroundImageFix"/>
<feColorMatrix in="SourceAlpha" type="matrix" values="0 0 0 0 0 0 0 0 0 0 0 0 0 0 0 0 0 0 127 0" result="hardAlpha"/>
<feOffset dy="2"/>
<feGaussianBlur stdDeviation="6.5"/>
<feColorMatrix type="matrix" values="0 0 0 0 0 0 0 0 0 0 0 0 0 0 0 0 0 0 0.0391171 0"/>
<feBlend mode="normal" in2="BackgroundImageFix" result="effect1_dropShadow_201_22394"/>
<feBlend mode="normal" in="SourceGraphic" in2="effect1_dropShadow_201_22394" result="shape"/>
</filter>
</defs>
</svg>
