<svg width="92" height="92" viewBox="0 0 92 92" fill="none" xmlns="http://www.w3.org/2000/svg">
<g filter="url(#filter0_d_201_22388)">
<rect x="13" y="11" width="66" height="66" rx="20" fill="white"/>
<rect x="13.5" y="11.5" width="65" height="65" rx="19.5" stroke="white"/>
</g>
<path d="M30.2124 49.1453C30.2124 50.6399 30.5392 51.7873 30.9665 52.4816C31.5267 53.3909 32.3621 53.7768 33.2139 53.7768C34.3123 53.7768 35.3173 53.5032 37.254 50.8147C38.8059 48.6599 40.6338 45.6354 41.8639 43.7391L43.9471 40.5266C45.3941 38.2956 47.0691 35.8155 48.9896 34.1344C50.5578 32.7623 52.2486 32 53.9507 32C56.8084 32 59.5303 33.6621 61.6135 36.7793C63.8934 40.1931 65 44.4934 65 48.9308C65 51.5689 64.482 53.5073 63.6003 55.0387C62.7487 56.5196 61.0886 57.9993 58.2961 57.9993V53.7762C60.6872 53.7762 61.2838 51.5709 61.2838 49.0472C61.2838 45.4509 60.4484 41.4599 58.608 38.6081C57.3021 36.5853 55.6095 35.3494 53.7473 35.3494C51.7332 35.3494 50.1125 36.8742 48.291 39.5922C47.3226 41.0366 46.3286 42.7965 45.2123 44.7826L43.9835 46.9674C41.5154 51.3607 40.8901 52.3609 39.6559 54.0116C37.4928 56.9026 35.6455 57.9987 33.2139 57.9987C30.3291 57.9987 28.505 56.7449 27.3752 54.8556C26.453 53.3161 26 51.2959 26 48.9943L30.2124 49.1453Z" fill="#0081FB"/>
<path d="M29.3213 37.0774C31.2526 34.0895 34.0397 32 37.2363 32C39.0875 32 40.9283 32.5499 42.8498 34.1249C44.9519 35.8465 47.1924 38.6831 49.9877 43.356L50.9899 45.0325C53.4095 49.078 54.786 51.1594 55.5917 52.1408C56.6277 53.4012 57.3533 53.777 58.2959 53.777C60.6871 53.777 61.2837 51.5717 61.2837 49.048L64.9998 48.931C64.9998 51.5691 64.4818 53.5075 63.6001 55.0389C62.7485 56.5198 61.0884 57.9995 58.2959 57.9995C56.5599 57.9995 55.022 57.6211 53.3213 56.0107C52.0144 54.7747 50.4853 52.5791 49.3094 50.6053L45.8117 44.7413C44.0568 41.7983 42.4464 39.604 41.5153 38.6103C40.5129 37.5416 39.2244 36.2512 37.1684 36.2512C35.5044 36.2512 34.0911 37.4232 32.9085 39.2159L29.3213 37.0774Z" fill="url(#paint0_linear_201_22388)"/>
<path d="M37.1686 36.2512C35.5045 36.2512 34.0913 37.4232 32.9087 39.2159C31.2364 41.7491 30.2133 45.5224 30.2133 49.1459C30.2133 50.6406 30.54 51.788 30.9673 52.4822L27.3752 54.8562C26.453 53.3168 26 51.2966 26 48.9949C26 44.8091 27.1447 40.4465 29.3215 37.0774C31.2527 34.0895 34.0398 32 37.2365 32L37.1686 36.2512Z" fill="url(#paint1_linear_201_22388)"/>
<defs>
<filter id="filter0_d_201_22388" x="0" y="0" width="92" height="92" filterUnits="userSpaceOnUse" color-interpolation-filters="sRGB">
<feFlood flood-opacity="0" result="BackgroundImageFix"/>
<feColorMatrix in="SourceAlpha" type="matrix" values="0 0 0 0 0 0 0 0 0 0 0 0 0 0 0 0 0 0 127 0" result="hardAlpha"/>
<feOffset dy="2"/>
<feGaussianBlur stdDeviation="6.5"/>
<feColorMatrix type="matrix" values="0 0 0 0 0 0 0 0 0 0 0 0 0 0 0 0 0 0 0.0391171 0"/>
<feBlend mode="normal" in2="BackgroundImageFix" result="effect1_dropShadow_201_22388"/>
<feBlend mode="normal" in="SourceGraphic" in2="effect1_dropShadow_201_22388" result="shape"/>
</filter>
<linearGradient id="paint0_linear_201_22388" x1="33.5201" y1="54.1102" x2="60.2598" y2="56.6627" gradientUnits="userSpaceOnUse">
<stop stop-color="#0064E1"/>
<stop offset="0.4" stop-color="#0064E1"/>
<stop offset="0.83" stop-color="#0073EE"/>
<stop offset="1" stop-color="#0082FB"/>
</linearGradient>
<linearGradient id="paint1_linear_201_22388" x1="34.0607" y1="50.921" x2="34.0607" y2="40.9841" gradientUnits="userSpaceOnUse">
<stop stop-color="#0082FB"/>
<stop offset="1" stop-color="#0064E0"/>
</linearGradient>
</defs>
</svg>
