<svg width="92" height="92" viewBox="0 0 92 92" fill="none" xmlns="http://www.w3.org/2000/svg">
<g filter="url(#filter0_d_201_22513)">
<rect x="13" y="11" width="66" height="66" rx="20" fill="white"/>
<rect x="13.5" y="11.5" width="65" height="65" rx="19.5" stroke="white"/>
</g>
<path fill-rule="evenodd" clip-rule="evenodd" d="M58.3838 37.2145C63.5987 38.7883 67 41.3262 67 44.0041C67 46.6738 63.6154 49.2117 58.434 50.7855C59.6457 56.0096 59.1192 60.1707 56.7709 61.5056C56.2193 61.8187 55.5842 61.967 54.8822 61.967C52.584 61.967 49.5754 60.3685 46.5334 57.5834C43.4914 60.385 40.4829 62 38.1847 62C37.4827 62 36.8475 61.8517 36.3043 61.5386C33.9476 60.2037 33.4128 56.0343 34.6162 50.7938C29.4013 49.22 26 46.6821 26 44.0041C26 41.3344 29.3846 38.8048 34.5828 37.2227C33.371 31.9986 33.8975 27.8375 36.2458 26.5026C36.7974 26.1895 37.4325 26.0412 38.1345 26.0412V26.033C40.4327 26.033 43.4413 27.6315 46.4833 30.4166C49.5253 27.615 52.5338 26 54.832 26V26.0082C55.5224 26.0094 56.1546 26.1578 56.6957 26.4697C59.0524 27.8045 59.5872 31.9739 58.3838 37.2145ZM54.8237 27.8375C53.0856 27.8419 50.5321 29.2093 47.8121 31.702C48.9904 32.9133 50.1604 34.2976 51.2886 35.8219C53.169 36.0197 54.9574 36.3246 56.5954 36.7201C56.7793 35.8878 56.9297 35.0721 57.0216 34.2976C57.406 31.1499 56.913 28.7027 55.7764 28.06C55.5173 27.9199 55.2081 27.8457 54.8237 27.8457V27.8375ZM45.1545 31.7102C42.4301 29.23 39.8645 27.8705 38.1345 27.8705V27.8787C37.7501 27.8787 37.4242 27.9446 37.1735 28.0929C36.0453 28.7439 35.5605 31.1911 35.9533 34.3387C36.0536 35.1051 36.1957 35.9043 36.3879 36.7283C38.0259 36.3246 39.8143 36.0197 41.703 35.8219C42.8145 34.2976 43.9845 32.9215 45.1545 31.7102ZM54.9908 41.7629C55.4254 40.667 55.8098 39.5711 56.119 38.5081C55.0243 38.2444 53.8793 38.0302 52.6926 37.8572C53.1021 38.4834 53.5116 39.1261 53.896 39.7853C54.2888 40.4445 54.6482 41.1037 54.9908 41.7629ZM52.2915 47.2836C51.6396 48.396 50.9711 49.4507 50.2774 50.4312C49.0322 50.5383 47.7703 50.596 46.5 50.596C45.2381 50.596 43.9762 50.5383 42.7393 50.4395C42.0457 49.4589 41.3687 48.4125 40.7169 47.3083C40.0817 46.2289 39.5051 45.133 38.9786 44.0288C39.4967 42.9247 40.0817 41.8206 40.7085 40.7411C41.3604 39.6287 42.0289 38.574 42.7226 37.5935C43.9678 37.4864 45.2297 37.4287 46.5 37.4287C47.7619 37.4287 49.0238 37.4864 50.2607 37.5853C50.9543 38.5658 51.6313 39.6123 52.2831 40.7164C52.9183 41.7958 53.4949 42.8917 54.0214 43.9959C53.4949 45.1 52.9183 46.2042 52.2915 47.2836ZM56.1441 49.4919C55.8265 48.4207 55.4421 47.3165 54.9908 46.2124C54.6482 46.8716 54.2888 47.539 53.9044 48.1982C53.52 48.8656 53.1105 49.5166 52.701 50.1511C53.896 49.978 55.0493 49.7556 56.1441 49.4919ZM46.5167 55.0043C45.7395 54.2133 44.9623 53.3317 44.1934 52.3676C44.9456 52.4005 45.7144 52.4253 46.4916 52.4253C47.2772 52.4253 48.0544 52.4088 48.8149 52.3676C48.0628 53.3317 47.2856 54.2133 46.5167 55.0043ZM36.8726 49.5001C37.9674 49.7638 39.1123 49.978 40.299 50.1511C39.8895 49.5248 39.4884 48.8821 39.0956 48.2229C38.7028 47.5637 38.3435 46.9046 38.0008 46.2454C37.5662 47.3413 37.1818 48.4372 36.8726 49.5001ZM46.4749 33.0039C47.2521 33.7949 48.0294 34.6766 48.7982 35.6406C48.0461 35.6077 47.2772 35.583 46.5 35.583C45.7144 35.583 44.9372 35.5995 44.1767 35.6406C44.9289 34.6766 45.7061 33.7949 46.4749 33.0039ZM39.0872 39.81C39.4717 39.1426 39.8812 38.4916 40.2907 37.8572C39.0956 38.0302 37.9423 38.2527 36.8475 38.5081C37.1651 39.5793 37.5495 40.6835 38.0008 41.7876C38.3435 41.1284 38.7028 40.4692 39.0872 39.81ZM32.7275 48.1735C29.7691 46.9293 27.8553 45.2978 27.8553 44.0041C27.8553 42.7105 29.7691 41.0707 32.7275 39.8347C33.4462 39.5299 34.2318 39.258 35.0424 39.0025C35.5188 40.6175 36.1455 42.2985 36.9227 44.0206C36.1539 45.7345 35.5355 47.4072 35.0675 49.014C34.2401 48.7585 33.4545 48.4784 32.7275 48.1735ZM35.9784 53.7107C35.594 56.8583 36.087 59.3056 37.2236 59.9483C37.4743 60.0883 37.7919 60.1625 38.168 60.1707C39.9062 60.1707 42.4635 58.8029 45.1879 56.3062C44.0096 55.095 42.8396 53.7107 41.7114 52.1863C39.831 51.9886 38.0426 51.6837 36.4046 51.2882C36.2207 52.1204 36.0703 52.9361 35.9784 53.7107ZM57.0467 53.6695C57.4395 56.8171 56.9548 59.2644 55.8265 59.9153C55.5758 60.0636 55.2499 60.1295 54.8655 60.1295C53.1355 60.1295 50.5699 58.77 47.8455 56.2898C49.0155 55.0785 50.1855 53.7024 51.297 52.1781C53.1857 51.9803 54.9741 51.6754 56.6121 51.2717C56.8043 52.1039 56.9548 52.9032 57.0467 53.6695ZM57.9492 49.0057C58.7599 48.7503 59.5455 48.4784 60.2642 48.1735C63.2226 46.9375 65.1364 45.2978 65.1447 44.0041C65.1447 42.7105 63.2309 41.079 60.2725 39.8347C59.5371 39.5299 58.7515 39.2497 57.9242 38.9943C57.4562 40.6011 56.8377 42.2737 56.0689 43.9876C56.8461 45.7098 57.4729 47.3907 57.9492 49.0057Z" fill="#61DAFB"/>
<circle cx="46.5" cy="44.5" r="3.5" fill="#61DAFB"/>
<defs>
<filter id="filter0_d_201_22513" x="0" y="0" width="92" height="92" filterUnits="userSpaceOnUse" color-interpolation-filters="sRGB">
<feFlood flood-opacity="0" result="BackgroundImageFix"/>
<feColorMatrix in="SourceAlpha" type="matrix" values="0 0 0 0 0 0 0 0 0 0 0 0 0 0 0 0 0 0 127 0" result="hardAlpha"/>
<feOffset dy="2"/>
<feGaussianBlur stdDeviation="6.5"/>
<feColorMatrix type="matrix" values="0 0 0 0 0 0 0 0 0 0 0 0 0 0 0 0 0 0 0.0391171 0"/>
<feBlend mode="normal" in2="BackgroundImageFix" result="effect1_dropShadow_201_22513"/>
<feBlend mode="normal" in="SourceGraphic" in2="effect1_dropShadow_201_22513" result="shape"/>
</filter>
</defs>
</svg>
