<svg width="66" height="66" viewBox="0 0 66 66" fill="none" xmlns="http://www.w3.org/2000/svg">
<rect x="0.5" y="0.5" width="65" height="65" rx="19.5" fill="white" stroke="white"/>
<path fill-rule="evenodd" clip-rule="evenodd" d="M25.3334 19.4993C25.332 17.5684 26.8978 16.0014 28.8326 16C30.7688 16.0029 32.336 17.5698 32.3346 19.5007V22.9986H28.834C26.8993 22.9971 25.332 21.4302 25.3334 19.4993ZM19.5006 25.3333H28.8326C30.7673 25.3348 32.3346 26.9017 32.3331 28.834C32.3346 30.7649 30.7673 32.3319 28.8326 32.3333H19.4991C17.5644 32.3305 15.9971 30.7635 16 28.8326C15.9986 26.9017 17.5658 25.3348 19.5006 25.3333Z" fill="#36C5F0"/>
<path fill-rule="evenodd" clip-rule="evenodd" d="M41.6667 19.4993V28.8326C41.6681 30.7649 40.1009 32.3319 38.1661 32.3333C36.2314 32.3305 34.6641 30.7635 34.667 28.8326V19.4993C34.6656 17.5684 36.2328 16.0014 38.1676 16C40.1023 16.0029 41.6681 17.5698 41.6667 19.4993ZM47.4996 25.3333C49.4343 25.3348 51.0016 26.9017 51.0001 28.8326C51.0016 30.7649 49.4343 32.3319 47.4996 32.3333H43.999V28.8326C43.9976 26.9017 45.5648 25.3348 47.4996 25.3333Z" fill="#2EB67D"/>
<path fill-rule="evenodd" clip-rule="evenodd" d="M47.499 41.666H38.1656C36.2309 41.6646 34.665 40.0976 34.6665 38.1653C34.665 36.2344 36.2323 34.6674 38.167 34.666H47.5005C49.4352 34.6689 51.0025 36.2358 50.9996 38.1667C51.001 40.0976 49.4338 41.6646 47.499 41.666ZM41.6662 47.5015C41.6676 49.4324 40.1004 50.9993 38.1656 51.0008C36.2309 50.9979 34.6636 49.4309 34.665 47.5015V44.0022H38.1656C40.1004 44.0036 41.6676 45.5706 41.6662 47.5015Z" fill="#ECB22E"/>
<path fill-rule="evenodd" clip-rule="evenodd" d="M19.5006 41.6646C17.5658 41.6632 15.9986 40.0962 16 38.1653C15.9986 36.2344 17.5658 34.6674 19.5006 34.666H23.0011V38.1653C23.0026 40.0962 21.4353 41.6632 19.5006 41.6646ZM25.3334 47.4986V38.1653C25.332 36.2344 26.8978 34.6674 28.834 34.6674C30.7687 34.6703 32.336 36.2373 32.3331 38.1682V47.5001C32.3346 49.4309 30.7673 50.9979 28.8326 50.9993C26.8978 50.9965 25.3306 49.4295 25.3334 47.4986Z" fill="#E01E5A"/>
</svg>
