<svg width="92" height="92" viewBox="0 0 92 92" fill="none" xmlns="http://www.w3.org/2000/svg">
<g filter="url(#filter0_d_201_22402)">
<rect x="13" y="11" width="66" height="66" rx="20" fill="white"/>
<rect x="13.5" y="11.5" width="65" height="65" rx="19.5" stroke="white"/>
</g>
<path d="M32.8573 49.6855L30.8695 50.4029L30.7637 56.2429L37.6446 53.7603C35.2826 52.979 33.5599 51.6021 32.8573 49.6855Z" fill="#FDBD39"/>
<path d="M33.8983 43.5078L27 45.9966L30.8699 50.4035L32.8578 49.6862C32.1568 47.7759 32.5894 45.6193 33.8983 43.5078Z" fill="#F69833"/>
<path d="M45.5052 35.0802C36.7217 38.2489 31.0581 44.7891 32.858 49.6857L64.6655 38.2099C62.8655 33.3134 54.2888 31.9115 45.5052 35.0802Z" fill="#FECF33"/>
<path d="M52.0167 52.8164C60.8002 49.6477 66.4733 43.1371 64.6639 38.2109L32.8564 49.6851C34.6659 54.6129 43.2331 55.9851 52.0167 52.8164Z" fill="#EE6723"/>
<path d="M64.6633 38.209L32.8574 49.6847C33.4795 51.3814 35.8558 52.2172 39.1873 52.2172C42.4368 52.2172 46.5956 51.4235 50.9314 49.8594C59.7149 46.6906 65.8932 41.5586 64.6633 38.209" fill="#F69833"/>
<path d="M58.3341 35.6797C55.0863 35.6797 50.9258 36.4734 46.5901 38.0375C37.8065 41.2062 31.6282 46.3367 32.8582 49.6863L64.6656 38.2106C64.0419 36.514 61.6672 35.6797 58.3341 35.6797" fill="#FDBD39"/>
<path fill-rule="evenodd" clip-rule="evenodd" d="M52.4732 54.0717C54.2605 55.7184 55.6405 56.5527 56.5768 56.5527C56.8247 56.559 57.0678 56.4888 57.2715 56.3516C58.4225 55.5531 57.5447 52.8538 56.6068 50.7299L56.5326 50.5646L56.3731 50.6535C56.2531 50.7221 56.1236 50.7923 55.991 50.864L55.8584 50.9357L55.9199 51.0729C57.2431 54.0701 57.2431 55.4596 56.8405 55.7387C56.771 55.7871 56.6794 55.8104 56.5657 55.8104C56.2357 55.8104 55.2268 55.5875 52.9879 53.5243C50.91 51.6109 48.5258 48.8009 46.2711 45.6088C44.018 42.4182 42.1691 39.2354 41.0654 36.6468C39.8781 33.8633 39.9033 32.5658 40.2854 32.3007C40.3502 32.2555 40.4402 32.2337 40.5539 32.2337C40.9517 32.2337 42.1738 32.5315 44.9527 35.2964L45.2054 35.5474L45.2338 35.1934C45.248 35.0141 45.2638 34.8332 45.2812 34.6523L45.289 34.5743L45.2322 34.5198C42.6538 32.0122 41.2581 31.4867 40.5428 31.4867C40.2965 31.4805 40.0549 31.5506 39.8512 31.6879C38.9718 32.2992 39.147 34.0644 40.3707 36.9369C41.4949 39.5738 43.3707 42.8049 45.6538 46.0376C47.9385 49.2703 50.359 52.124 52.4732 54.0717Z" fill="#EE6723"/>
<path d="M52.2296 52.7265L52.217 52.8887C51.9943 55.602 51.4101 58.8643 49.8849 58.9969C49.8533 59 49.8217 59 49.7917 59C48.756 59 47.7755 57.5342 46.8802 54.6446C46.0307 51.9093 45.3723 48.2385 45.0265 44.3072C44.6792 40.3759 44.6839 36.6474 45.0408 33.8077C45.4292 30.7138 46.1681 29.0982 47.2386 29.0047C47.2702 29.0016 47.3034 29 47.3349 29C48.0865 29 49.2186 29.8405 50.3775 33.7547L49.6212 33.8981C49.2344 32.5913 48.8128 31.5278 48.3944 30.7949C48.0076 30.1197 47.6302 29.747 47.3349 29.747C47.3255 29.747 47.316 29.747 47.3049 29.7485C46.8407 29.7891 46.165 30.8994 45.7892 33.8997C45.4386 36.6879 45.4339 40.3619 45.7765 44.2417C46.1192 48.1231 46.7665 51.7394 47.6002 54.4247C47.9728 55.627 48.3818 56.6188 48.7844 57.2909C49.1539 57.9115 49.5123 58.253 49.7917 58.253C49.8012 58.253 49.8107 58.253 49.8202 58.2515C50.2638 58.2141 51.1007 57.057 51.4528 52.9885L52.2296 52.7265Z" fill="#EE6723"/>
<defs>
<filter id="filter0_d_201_22402" x="0" y="0" width="92" height="92" filterUnits="userSpaceOnUse" color-interpolation-filters="sRGB">
<feFlood flood-opacity="0" result="BackgroundImageFix"/>
<feColorMatrix in="SourceAlpha" type="matrix" values="0 0 0 0 0 0 0 0 0 0 0 0 0 0 0 0 0 0 127 0" result="hardAlpha"/>
<feOffset dy="2"/>
<feGaussianBlur stdDeviation="6.5"/>
<feColorMatrix type="matrix" values="0 0 0 0 0 0 0 0 0 0 0 0 0 0 0 0 0 0 0.0391171 0"/>
<feBlend mode="normal" in2="BackgroundImageFix" result="effect1_dropShadow_201_22402"/>
<feBlend mode="normal" in="SourceGraphic" in2="effect1_dropShadow_201_22402" result="shape"/>
</filter>
</defs>
</svg>
