<svg width="56" height="56" viewBox="0 0 56 56" fill="none" xmlns="http://www.w3.org/2000/svg">
<rect width="56" height="56" rx="20" fill="#B6D35C"/>
<path d="M23.7412 32.4062C24.8878 32.4062 25.8174 33.361 25.8174 34.5387V43.6864C25.8174 44.8641 24.8878 45.8187 23.7412 45.8187C22.5946 45.8187 21.665 44.8641 21.665 43.6864V34.5387C21.665 33.3611 22.5946 32.4064 23.7412 32.4064V32.4062Z" fill="white"/>
<path d="M19.0011 21.4082C18.9943 21.4891 18.9883 21.5708 18.9883 21.6535V35.5131C18.9883 37.0036 20.137 38.2044 21.563 38.2044H35.2858C36.712 38.2044 37.8607 37.0034 37.8607 35.5131V21.6535C37.8607 21.5708 37.8578 21.4888 37.8511 21.4082H19.0011Z" fill="white"/>
<path fill-rule="evenodd" clip-rule="evenodd" d="M27.3812 12.2891C22.7373 12.7491 19.1196 16.2395 19.0619 20.4967H37.7872C37.7294 16.2398 34.112 12.7492 29.4678 12.2891H27.3812ZM17.7286 24.773C17.7286 23.5953 16.799 22.6405 15.6524 22.6405C14.5056 22.6405 13.576 23.5954 13.5762 24.7731V33.9208C13.5762 35.0984 14.5058 36.0531 15.6524 36.0531C16.799 36.0531 17.7286 35.0984 17.7286 33.9206V24.773ZM35.1844 34.5376C35.1844 33.3599 34.2549 32.4051 33.1082 32.4051V32.4053C31.9616 32.4053 31.0321 33.36 31.0321 34.5376V43.6853C31.0321 44.863 31.9616 45.8176 33.1082 45.8176C34.2549 45.8176 35.1844 44.863 35.1844 43.6853V34.5376ZM41.197 22.6405C42.3436 22.6405 43.2731 23.5953 43.2731 24.773V33.9206C43.2731 35.0984 42.3436 36.0531 41.197 36.0531C40.0503 36.0531 39.1208 35.0984 39.1208 33.9208V24.7731C39.1208 23.5954 40.0503 22.6405 41.197 22.6405Z" fill="white"/>
<path d="M20.329 11.5727C20.1599 11.2718 19.7788 11.1649 19.4779 11.3341C19.177 11.5032 19.0702 11.8843 19.2394 12.1852L20.329 11.5727ZM21.4295 16.0814C21.5986 16.3823 21.9797 16.4891 22.2806 16.32C22.5815 16.1509 22.6883 15.7698 22.5191 15.4689L21.4295 16.0814ZM37.6105 12.1852C37.7797 11.8843 37.6729 11.5032 37.372 11.3341C37.0711 11.1649 36.69 11.2717 36.5209 11.5726L37.6105 12.1852ZM34.3306 15.4689C34.1615 15.7698 34.2683 16.1508 34.5691 16.32C34.87 16.4891 35.2511 16.3823 35.4202 16.0814L34.3306 15.4689ZM19.2394 12.1852L21.4295 16.0814L22.5191 15.4689L20.329 11.5727L19.2394 12.1852ZM36.5209 11.5726L34.3306 15.4689L35.4202 16.0814L37.6105 12.1852L36.5209 11.5726Z" fill="white"/>
<path fill-rule="evenodd" clip-rule="evenodd" d="M32.5826 17.7626C33.176 17.761 33.6555 17.2772 33.6537 16.6821V16.6761C33.652 16.0807 33.1697 15.5999 32.5766 15.6016C31.9834 15.6032 31.5038 16.0869 31.5054 16.6821V16.6881C31.5072 17.2832 31.9895 17.7641 32.5826 17.7626ZM24.5644 17.7626C25.1578 17.761 25.6373 17.2772 25.6356 16.6821V16.6761C25.6338 16.0807 25.1516 15.5999 24.5585 15.6016C23.9652 15.6032 23.4857 16.0869 23.4873 16.6821V16.6881C23.4891 17.2832 23.9713 17.7641 24.5644 17.7626Z" fill="#A4C639"/>
</svg>
