<svg width="80" height="80" viewBox="0 0 80 80" fill="none" xmlns="http://www.w3.org/2000/svg">
<path d="M63 23.334C66.0148 28.3379 67.3031 34.1934 66.6667 40.0007V43.334C66.6628 46.8436 67.5824 50.2924 69.3333 53.334" stroke="#212121" stroke-width="2" stroke-linecap="round" stroke-linejoin="round"/>
<path d="M26.667 36.6673C26.667 29.3035 32.6365 23.334 40.0003 23.334C47.3641 23.334 53.3337 29.3035 53.3337 36.6673V40.0007C53.3337 47.213 55.6729 54.2308 60.0003 60.0007" stroke="#212121" stroke-width="2" stroke-linecap="round" stroke-linejoin="round"/>
<path d="M40 36.666V43.3327C39.9894 52.864 42.8975 62.17 48.3334 69.9993" stroke="#212121" stroke-width="2" stroke-linecap="round" stroke-linejoin="round"/>
<path d="M26.667 50C27.4827 56.9661 29.5134 63.7353 32.667 70" stroke="#212121" stroke-width="2" stroke-linecap="round" stroke-linejoin="round"/>
<path d="M16.3334 63.3338C14.0843 55.7681 13.0712 47.889 13.3334 40.0004V36.6671C13.3074 27.1271 18.3798 18.2998 26.6353 13.5186C34.8907 8.73727 45.0715 8.73037 53.3335 13.5004" stroke="#212121" stroke-width="2" stroke-linecap="round" stroke-linejoin="round"/>
</svg>
