<svg width="56" height="56" viewBox="0 0 56 56" fill="none" xmlns="http://www.w3.org/2000/svg">
<rect width="56" height="56" rx="20" fill="#FF753D"/>
<path fill-rule="evenodd" clip-rule="evenodd" d="M34.4871 25.3133H43.8974C44.0439 26.1836 44.1203 27.0765 44.1213 27.9884V28.0118C44.1203 28.9237 44.0439 29.8167 43.8974 30.6869H34.4861L41.1408 37.3411C40.6187 38.0741 40.0366 38.7624 39.4007 39.3992L39.3992 39.4007C38.7626 40.0369 38.0742 40.6191 37.3411 41.1413L30.6863 34.4866V43.8974C29.8023 44.0456 28.9076 44.1205 28.0112 44.1213H27.9884C27.0921 44.1204 26.1973 44.0455 25.3133 43.8974V34.4866L18.6591 41.1413C17.1901 40.0945 15.9058 38.8101 14.8589 37.3411L21.5136 30.6869H12.1033C11.9564 29.8151 11.8789 28.9195 11.8789 28.0057V27.9946C11.8789 27.0807 12.1033 25.3133 12.1033 25.3133H21.5135L14.8588 18.6591C15.3806 17.9268 15.9623 17.2391 16.598 16.6032L16.6015 16.6007C17.2375 15.9638 17.9258 15.3813 18.6591 14.8594L25.3133 21.5136V12.1033C26.1846 11.957 27.0787 11.8794 27.9916 11.8789H28.0082C28.9056 11.8794 29.8014 11.9545 30.6864 12.1033V21.5136L37.3406 14.8594C38.0738 15.3814 38.7624 15.9635 39.3992 16.5995V16.6C40.036 17.2368 40.6186 17.9255 41.1408 18.6591L34.4871 25.3133ZM31.9575 31.9566C32.3869 30.817 32.6066 29.609 32.606 28.3911L32.6062 28.391V28.3762C32.6068 27.1585 32.3871 25.9508 31.9577 24.8113C30.8177 24.3812 29.6093 24.1611 28.3909 24.1617H28.3767C27.1582 24.1612 25.9497 24.3813 24.8096 24.8114C24.3806 25.951 24.1611 27.1587 24.1617 28.3764V28.3911C24.1613 29.6092 24.3813 30.8174 24.8109 31.9572C25.92 32.3753 27.122 32.6046 28.3766 32.6062H28.3908C29.6091 32.606 30.8174 32.3859 31.9575 31.9566Z" fill="white"/>
</svg>
